<svg width="167" height="53" viewBox="0 0 167 53" fill="none" xmlns="http://www.w3.org/2000/svg">
<path fill-rule="evenodd" clip-rule="evenodd" d="M10.0167 0.494019H156.728C159.989 0.494019 161.169 0.859234 162.361 1.53749C163.538 2.20479 164.5 3.23651 165.122 4.49835C165.755 5.7766 166.096 7.04181 166.096 10.5244V42.6373C166.096 46.1199 165.755 47.3851 165.122 48.6634C164.5 49.9252 163.538 50.9569 162.361 51.6242C161.169 52.3025 159.989 52.6677 156.741 52.6677H10.0045C6.75644 52.6677 5.57642 52.3025 4.38424 51.6242C3.20737 50.9569 2.24511 49.9252 1.62275 48.6634C0.99016 47.3851 0.649536 46.1199 0.649536 42.6373V10.5244C0.649536 7.04181 0.99016 5.7766 1.62275 4.49835C2.24511 3.23651 3.20737 2.20479 4.38424 1.53749C5.57642 0.859234 6.75644 0.494019 10.0045 0.494019H10.0167Z" fill="black"/>
</svg>
